<?xml version="1.0" encoding="UTF-8" standalone="no"?>
<!DOCTYPE svg PUBLIC "-//W3C//DTD SVG 1.1//EN"
 "http://www.w3.org/Graphics/SVG/1.1/DTD/svg11.dtd">
<!-- Generated by graphviz version 2.43.0 (0)
 -->
<!-- Title: G Pages: 1 -->
<svg width="646pt" height="98pt"
 viewBox="0.00 0.00 646.00 98.00" xmlns="http://www.w3.org/2000/svg" xmlns:xlink="http://www.w3.org/1999/xlink">
<g id="graph0" class="graph" transform="scale(1 1) rotate(0) translate(4 94)">
<title>G</title>
<polygon fill="white" stroke="transparent" points="-4,4 -4,-94 642,-94 642,4 -4,4"/>
<!-- data.aws_key_pair.key -->
<g id="node1" class="node">
<title>data.aws_key_pair.key</title>
<polygon fill="none" stroke="black" points="381,-90 211,-90 211,-54 381,-54 381,-90"/>
<text text-anchor="middle" x="296" y="-68.3" font-family="sans-serif" font-size="14.00">data.aws_key_pair.key</text>
</g>
<!-- aws_instance.ec2_public -->
<g id="node2" class="node">
<title>aws_instance.ec2_public</title>
<polygon fill="none" stroke="black" points="628.5,-90 441.5,-90 441.5,-54 628.5,-54 628.5,-90"/>
<text text-anchor="middle" x="535" y="-68.3" font-family="sans-serif" font-size="14.00">aws_instance.ec2_public</text>
</g>
<!-- aws_instance.ec2_public&#45;&gt;data.aws_key_pair.key -->
<g id="edge1" class="edge">
<title>aws_instance.ec2_public&#45;&gt;data.aws_key_pair.key</title>
<path fill="none" stroke="black" d="M441.35,-72C424.9,-72 407.75,-72 391.26,-72"/>
<polygon fill="black" stroke="black" points="391.09,-68.5 381.09,-72 391.09,-75.5 391.09,-68.5"/>
</g>
<!-- aws_subnet.public_subnet -->
<g id="node4" class="node">
<title>aws_subnet.public_subnet</title>
<polygon fill="none" stroke="black" points="396,-36 196,-36 196,0 396,0 396,-36"/>
<text text-anchor="middle" x="296" y="-14.3" font-family="sans-serif" font-size="14.00">aws_subnet.public_subnet</text>
</g>
<!-- aws_instance.ec2_public&#45;&gt;aws_subnet.public_subnet -->
<g id="edge2" class="edge">
<title>aws_instance.ec2_public&#45;&gt;aws_subnet.public_subnet</title>
<path fill="none" stroke="black" d="M454.75,-53.94C432.72,-48.92 408.64,-43.44 386.08,-38.3"/>
<polygon fill="black" stroke="black" points="386.7,-34.85 376.17,-36.04 385.14,-41.67 386.7,-34.85"/>
</g>
<!-- aws_subnet.private_subnet -->
<g id="node3" class="node">
<title>aws_subnet.private_subnet</title>
<polygon fill="none" stroke="black" points="638,-36 432,-36 432,0 638,0 638,-36"/>
<text text-anchor="middle" x="535" y="-14.3" font-family="sans-serif" font-size="14.00">aws_subnet.private_subnet</text>
</g>
<!-- aws_subnet.private_subnet&#45;&gt;aws_subnet.public_subnet -->
<g id="edge3" class="edge">
<title>aws_subnet.private_subnet&#45;&gt;aws_subnet.public_subnet</title>
<path fill="none" stroke="black" d="M431.77,-18C423.4,-18 414.92,-18 406.49,-18"/>
<polygon fill="black" stroke="black" points="406.26,-14.5 396.26,-18 406.26,-21.5 406.26,-14.5"/>
</g>
<!-- aws_vpc.vpc&#45;virginia -->
<g id="node5" class="node">
<title>aws_vpc.vpc&#45;virginia</title>
<polygon fill="none" stroke="black" points="160,-36 0,-36 0,0 160,0 160,-36"/>
<text text-anchor="middle" x="80" y="-14.3" font-family="sans-serif" font-size="14.00">aws_vpc.vpc&#45;virginia</text>
</g>
<!-- aws_subnet.public_subnet&#45;&gt;aws_vpc.vpc&#45;virginia -->
<g id="edge4" class="edge">
<title>aws_subnet.public_subnet&#45;&gt;aws_vpc.vpc&#45;virginia</title>
<path fill="none" stroke="black" d="M195.83,-18C187.36,-18 178.82,-18 170.43,-18"/>
<polygon fill="black" stroke="black" points="170.28,-14.5 160.28,-18 170.28,-21.5 170.28,-14.5"/>
</g>
</g>
</svg>
